<?xml version="1.0" encoding="utf-8"?>
<!-- Generator: Adobe Illustrator 23.0.1, SVG Export Plug-In . SVG Version: 6.00 Build 0)  -->
<svg version="1.1" id="Ebene_1" xmlns="http://www.w3.org/2000/svg" xmlns:xlink="http://www.w3.org/1999/xlink" x="0px" y="0px"
	 viewBox="0 0 200 200" style="enable-background:new 0 0 200 200;" xml:space="preserve">
<style type="text/css">
	.st0{fill:#FFFFFF;}
</style>
<path class="st0" d="M0,158.3V175c0,13.8,33.6,25,75,25s75-11.2,75-25v-16.7c-16.1,11.4-45.6,16.7-75,16.7S16.1,169.7,0,158.3z
	 M125,50c41.4,0,75-11.2,75-25S166.4,0,125,0S50,11.2,50,25S83.6,50,125,50z M0,117.3v20.2c0,13.8,33.6,25,75,25s75-11.2,75-25
	v-20.2c-16.1,13.3-45.7,20.2-75,20.2S16.1,130.6,0,117.3z M162.5,121.6c22.4-4.3,37.5-12.4,37.5-21.6V83.3
	c-9.1,6.4-22.4,10.8-37.5,13.5V121.6z M75,62.5c-41.4,0-75,14-75,31.3S33.6,125,75,125s75-14,75-31.3S116.4,62.5,75,62.5z
	 M160.7,84.5c23.4-4.2,39.3-12.5,39.3-22V45.8c-13.9,9.8-37.7,15.1-62.8,16.3C148.8,67.7,157.2,75.2,160.7,84.5z"/>
</svg>
