<?xml version="1.0" encoding="utf-8"?>
<!-- Generator: Adobe Illustrator 23.0.1, SVG Export Plug-In . SVG Version: 6.00 Build 0)  -->
<svg version="1.1" id="Ebene_1" xmlns="http://www.w3.org/2000/svg" xmlns:xlink="http://www.w3.org/1999/xlink" x="0px" y="0px"
	 viewBox="0 0 200 200" style="enable-background:new 0 0 200 200;" xml:space="preserve">
<style type="text/css">
	.st0{fill:#FFFFFF;}
</style>
<path class="st0" d="M90,200v-17l0.1-2.4l60.6-60.6h29.4c11,0,19.9,8.9,19.9,20v40c0,11.1-8.9,20-20,20l0,0H90z M90,166.6V53.4
	l20.8-20.7c3.6-3.6,8.6-5.9,14.1-5.9s10.5,2.2,14.1,5.9L167.3,61c3.6,3.6,5.8,8.6,5.8,14.1s-2.2,10.5-5.8,14.1l0,0L90,166.6z
	 M0,19.9C0,9,8.9,0,20,0h40c11.1,0,20,8.9,20,20l0,0v160c0,11.1-8.9,20-20,20l0,0H20c-11.1,0-20-8.9-20-20l0,0V20V19.9z M40,170
	c5.5,0,10-4.5,10-10s-4.5-10-10-10l0,0c-5.5,0-10,4.5-10,10S34.5,170,40,170L40,170z"/>
</svg>
