<?xml version="1.0" encoding="utf-8"?>
<!-- Generator: Adobe Illustrator 23.0.1, SVG Export Plug-In . SVG Version: 6.00 Build 0)  -->
<svg version="1.1" id="Ebene_1" xmlns="http://www.w3.org/2000/svg" xmlns:xlink="http://www.w3.org/1999/xlink" x="0px" y="0px"
	 viewBox="0 0 200 200" style="enable-background:new 0 0 200 200;" xml:space="preserve">
<style type="text/css">
	.st0{fill:#FFFFFF;}
</style>
<path class="st0" d="M179.1,25.1C156.5,6.1,121.6,9,100,31C78.4,9,43.5,6.1,20.9,25.1c-29.4,24.7-25.1,65-4.1,86.4l68.5,69.8
	c3.9,4,9.1,6.2,14.7,6.2c5.6,0,10.8-2.2,14.7-6.2l68.5-69.8C204.1,90.2,208.5,49.9,179.1,25.1z M169.8,98.3l-68.5,69.8
	c-0.9,0.9-1.7,0.9-2.7,0L30.1,98.3C15.9,83.8,13,56.3,33,39.5c15.2-12.8,38.6-10.9,53.3,4.1L100,57.5l13.7-14
	c14.8-15,38.2-16.9,53.3-4.1C186.9,56.3,184,83.9,169.8,98.3L169.8,98.3z"/>
</svg>
