<?xml version="1.0" encoding="utf-8"?>
<!-- Generator: Adobe Illustrator 23.0.1, SVG Export Plug-In . SVG Version: 6.00 Build 0)  -->
<svg version="1.1" id="Ebene_1" xmlns="http://www.w3.org/2000/svg" xmlns:xlink="http://www.w3.org/1999/xlink" x="0px" y="0px"
	 viewBox="0 0 200 200" style="enable-background:new 0 0 200 200;" xml:space="preserve">
<style type="text/css">
	.st0{fill:#FFFFFF;}
</style>
<g>
	<path class="st0" d="M174.1,79c1.1,4.9,1.7,10,1.7,15.3c0,40.3-34.2,74-79.3,81.2c9.5,3.9,20.2,6.1,31.6,6.1c10.7,0,20.9-2,30-5.4
		c11.6,3.9,24.2,5,34.7,5c-5.4-6.5-9.2-12.9-11.9-18.5c11.6-10.4,18.7-24.1,18.7-39.2C199.6,105.6,189.6,89.7,174.1,79z M8.9,164.2
		c1.1,2.1,3.2,3.4,5.5,3.4c0.1,0,0.2,0,0.3,0c6.6-0.3,19.8-4.7,33.7-13.5c7.5,1.3,24.1,3.8,29.9,3.8c43.9,0,78.4-30.6,78.4-69.7
		c0-38.4-35.1-69.7-78.4-69.7S0,49.7,0,88.1c0,17.9,7.9,35.2,21.7,48.1c-3.1,7.6-7.2,14.7-12.3,21.3C8,159.4,7.8,162,8.9,164.2z
		 M12.5,88.1c0-31.5,29.5-57.2,65.9-57.2s65.9,25.7,65.9,57.2c0,32.6-28.3,57.2-65.9,57.2c-4.9,0-24.6-2.9-30-4
		c-1.7-0.3-3.4,0-4.7,0.9c-5.4,3.6-10.4,6.2-14.8,8.2c2.4-4.5,4.5-9.1,6.2-13.9c0.9-2.5,0.1-5.3-1.9-6.9
		C19.8,118.6,12.5,103.9,12.5,88.1z"/>
</g>
</svg>
