<?xml version="1.0" encoding="utf-8"?>
<!-- Generator: Adobe Illustrator 23.0.1, SVG Export Plug-In . SVG Version: 6.00 Build 0)  -->
<svg version="1.1" id="Ebene_1" xmlns="http://www.w3.org/2000/svg" xmlns:xlink="http://www.w3.org/1999/xlink" x="0px" y="0px"
	 viewBox="0 0 200 200" style="enable-background:new 0 0 200 200;" xml:space="preserve">
<style type="text/css">
	.st0{fill:#FFFFFF;}
</style>
<path class="st0" d="M100,1C45.3,1,1,45.3,1,100s44.3,99,99,99s99-44.3,99-99S154.7,1,100,1z M100,179.8
	c-44.1,0-79.8-35.7-79.8-79.8c0-44.1,35.7-79.8,79.8-79.8c44.1,0,79.8,35.7,79.8,79.8C179.8,144.1,144.1,179.8,100,179.8z
	 M136.4,55.2l-13.3,55c-0.4,1.8-1.4,3.4-2.7,4.7l-41,39c-6.8,6.5-18.2,0.2-15.9-9.2l13.3-55c0.4-1.8,1.4-3.4,2.7-4.7l41-39
	C127.4,39.5,138.7,46,136.4,55.2L136.4,55.2z M100,87.2c-7.1,0-12.8,5.7-12.8,12.8s5.7,12.8,12.8,12.8s12.8-5.7,12.8-12.8
	S107.1,87.2,100,87.2z"/>
</svg>
