<?xml version="1.0" encoding="utf-8"?>
<!-- Generator: Adobe Illustrator 23.0.1, SVG Export Plug-In . SVG Version: 6.00 Build 0)  -->
<svg version="1.1" id="Ebene_1" xmlns="http://www.w3.org/2000/svg" xmlns:xlink="http://www.w3.org/1999/xlink" x="0px" y="0px"
	 viewBox="0 0 200 200" style="enable-background:new 0 0 200 200;" xml:space="preserve">
<style type="text/css">
	.st0{fill:#FFFFFF;}
</style>
<path class="st0" d="M198.9,57L143,1.1c-1.8-1.8-4.2-1.4-5.3,0.9l-7.5,15.6l52.2,52.2l15.6-7.5C200.3,61.2,200.7,58.8,198.9,57z"/>
<path class="st0" d="M120.2,26.4l-51.4,4.3c-3.4,0.4-6.3,1.1-7.2,5.6v0C47.6,103.4,0,168.8,0,168.8L11.2,180l53.1-53.1
	c-1.2-2.4-1.8-5.2-1.8-8.1c0-10.4,8.4-18.8,18.8-18.8s18.8,8.4,18.8,18.7s-8.4,18.8-18.8,18.8c-2.9,0-5.6-0.7-8.1-1.8L20,188.8
	L31.3,200c0,0,65.4-47.6,132.4-61.5h0c4.5-1,5.2-3.8,5.6-7.2l4.3-51.4L120.2,26.4L120.2,26.4z"/>
</svg>
