<?xml version="1.0" encoding="utf-8"?>
<!-- Generator: Adobe Illustrator 23.0.1, SVG Export Plug-In . SVG Version: 6.00 Build 0)  -->
<svg version="1.1" id="Ebene_1" xmlns="http://www.w3.org/2000/svg" xmlns:xlink="http://www.w3.org/1999/xlink" x="0px" y="0px"
	 viewBox="0 0 200 200" style="enable-background:new 0 0 200 200;" xml:space="preserve">
<style type="text/css">
	.st0{fill:#FFFFFF;}
</style>
<path class="st0" d="M100,0C44.8,0,0,44.8,0,100s44.8,100,100,100s100-44.8,100-100S155.2,0,100,0z M100,180.6
	c-44.5,0-80.7-36.2-80.7-80.7S55.5,19.4,100,19.4s80.6,36.2,80.6,80.7S144.5,180.6,100,180.6z M133.9,122.8
	c-8.4,10.1-20.8,15.9-33.9,15.9s-25.5-5.8-33.9-15.9c-3.4-4.1-9.5-4.6-13.6-1.3c-4.1,3.4-4.6,9.5-1.3,13.6
	C63.4,149.7,81.1,158,100,158s36.6-8.3,48.8-22.8c3.4-4.1,2.9-10.2-1.3-13.6C143.4,118.2,137.3,118.7,133.9,122.8z M67.7,93.6
	c7.1,0,12.9-5.8,12.9-12.9c0-7.1-5.8-12.9-12.9-12.9s-12.9,5.8-12.9,12.9C54.8,87.8,60.6,93.6,67.7,93.6z M132.3,93.6
	c7.1,0,12.9-5.8,12.9-12.9c0-7.1-5.8-12.9-12.9-12.9c-7.1,0-12.9,5.8-12.9,12.9C119.3,87.8,125.1,93.6,132.3,93.6z"/>
</svg>
